<svg xmlns="http://www.w3.org/2000/svg" xmlns:xlink="http://www.w3.org/1999/xlink" viewBox="0 0 207.93 230.03"><defs><style>.cls-1{fill:url(#linear-gradient);}.cls-2,.cls-4{font-size:44.54px;fill:#fff;}.cls-2{font-family:Montserrat-Regular, Montserrat Regular;}.cls-3{fill:url(#linear-gradient-2);}.cls-4{font-family:Montserrat-ExtraLight, Montserrat ExtraLight;font-weight:200;}.cls-5{fill:url(#linear-gradient-7);}</style><linearGradient id="linear-gradient" x1="44.06" y1="2.74" x2="161.11" y2="166.6" gradientUnits="userSpaceOnUse"><stop offset="0" stop-color="#ffb83d"/><stop offset="1" stop-color="#1200fc"/></linearGradient><linearGradient id="linear-gradient-2" x1="13.86" y1="168.88" x2="100.89" y2="264.07" xlink:href="#linear-gradient"/><linearGradient id="linear-gradient-7" x1="131.83" y1="171.32" x2="181.2" y2="240.43" xlink:href="#linear-gradient"/></defs><g id="Layer_2" data-name="Layer 2"><g id="OBJECTS"><path class="cls-1" d="M103.66,0A86.18,86.18,0,0,0,49.51,153.23l5.91-29.17c-11.91-12.6-17.68-26.64-19.75-31.9a10.57,10.57,0,0,0-3.19,6.23,7.71,7.71,0,0,1-.87-4.52,8.23,8.23,0,0,1,9.13-7.07A8.42,8.42,0,0,1,46,89.34q-.63-.14-1.29-.21a11.42,11.42,0,0,0-5.6.82,73.29,73.29,0,0,0,44.61,35,74.35,74.35,0,0,0,39.6,0,73.29,73.29,0,0,0,44.6-35,11.42,11.42,0,0,0-5.6-.82q-.66.08-1.29.21a8.42,8.42,0,0,1,5.21-2.54,8.22,8.22,0,0,1,9.13,7.07,7.71,7.71,0,0,1-.87,4.52,10.52,10.52,0,0,0-3.19-6.23c-2,5.21-7.73,19-19.43,31.55l6,29.52A86.18,86.18,0,0,0,103.66,0Zm0,32.29c11.86,0,21.51,11.89,21.51,26.5h-7.89c0-10.26-6.11-18.61-13.62-18.61S90,48.53,90,58.79H82.15C82.15,44.18,91.8,32.29,103.66,32.29Zm18.55,86.88a70.71,70.71,0,0,1-37.49,0,69.1,69.1,0,0,1-26-13.53l8.61-42.47H140l8.56,42.18A69.13,69.13,0,0,1,122.21,119.17Z"/></g><g id="TEXT"><text class="cls-2" transform="translate(0 218.9)">Smile</text><path class="cls-3" d="M2.85,214.17a13.74,13.74,0,0,0,7,2c4,0,6.28-2.09,6.28-5.12,0-2.8-1.6-4.41-5.66-6-4.9-1.73-7.93-4.27-7.93-8.5,0-4.68,3.88-8.15,9.71-8.15a13.61,13.61,0,0,1,6.64,1.47L17.77,193a11.87,11.87,0,0,0-5.7-1.43c-4.1,0-5.66,2.45-5.66,4.5,0,2.81,1.83,4.19,6,5.79,5.08,2,7.66,4.41,7.66,8.82,0,4.63-3.43,8.64-10.51,8.64a15.51,15.51,0,0,1-7.66-1.91Z"/><path class="cls-3" d="M25.21,203.17c0-2.22,0-4-.18-5.83h3.43l.18,3.47h.13a7.44,7.44,0,0,1,6.77-4,6.39,6.39,0,0,1,6.11,4.32h.09a8.84,8.84,0,0,1,2.4-2.81,7.36,7.36,0,0,1,4.77-1.51c2.85,0,7.08,1.87,7.08,9.35v12.7H52.16V206.69c0-4.14-1.52-6.63-4.68-6.63a5.06,5.06,0,0,0-4.63,3.56,6.39,6.39,0,0,0-.31,2V218.9H38.71V206c0-3.43-1.52-5.92-4.5-5.92A5.83,5.83,0,0,0,29,205.89v13H25.21Z"/><path class="cls-3" d="M66.72,191.28a2.43,2.43,0,0,1-4.85,0,2.39,2.39,0,0,1,2.45-2.45A2.32,2.32,0,0,1,66.72,191.28ZM62.36,218.9V197.34h3.92V218.9Z"/><path class="cls-3" d="M72.78,187.27H76.7V218.9H72.78Z"/><path class="cls-3" d="M85.48,208.83c.09,5.3,3.47,7.48,7.39,7.48a14.23,14.23,0,0,0,6-1.11l.67,2.81a17.53,17.53,0,0,1-7.17,1.33c-6.64,0-10.61-4.36-10.61-10.87s3.84-11.62,10.12-11.62c7,0,8.9,6.19,8.9,10.15a15.84,15.84,0,0,1-.13,1.83ZM97,206c0-2.49-1-6.36-5.44-6.36-4,0-5.7,3.65-6,6.36Z"/><text class="cls-4" transform="translate(111.46 218.9)">Shop</text><path class="cls-5" d="M114.31,214.17a13.68,13.68,0,0,0,6.94,2c4,0,6.28-2.09,6.28-5.12,0-2.8-1.6-4.41-5.65-6-4.9-1.73-7.93-4.27-7.93-8.5,0-4.68,3.87-8.15,9.71-8.15a13.65,13.65,0,0,1,6.64,1.47L129.23,193a11.91,11.91,0,0,0-5.71-1.43c-4.09,0-5.65,2.45-5.65,4.5,0,2.81,1.82,4.19,6,5.79,5.07,2,7.66,4.41,7.66,8.82,0,4.63-3.43,8.64-10.51,8.64a15.48,15.48,0,0,1-7.66-1.91Z"/><path class="cls-5" d="M136.66,187.27h3.92v13.45h.09a7.38,7.38,0,0,1,2.81-2.76,8.06,8.06,0,0,1,4-1.11c2.89,0,7.53,1.78,7.53,9.22V218.9H151.1V206.51c0-3.47-1.3-6.41-5-6.41a5.63,5.63,0,0,0-5.26,3.92,4.77,4.77,0,0,0-.27,1.87v13h-3.92Z"/><path class="cls-5" d="M180.9,207.94c0,8-5.53,11.45-10.74,11.45-5.83,0-10.33-4.28-10.33-11.09,0-7.22,4.72-11.45,10.69-11.45C176.71,196.85,180.9,201.35,180.9,207.94Zm-17.11.22c0,4.72,2.72,8.29,6.55,8.29s6.55-3.52,6.55-8.38c0-3.65-1.83-8.28-6.46-8.28S163.79,204.06,163.79,208.16Z"/><path class="cls-5" d="M185.84,204.38c0-2.76-.09-5-.18-7h3.52l.18,3.7h.09a8.47,8.47,0,0,1,7.66-4.19c5.21,0,9.13,4.41,9.13,11,0,7.75-4.72,11.58-9.8,11.58A7.58,7.58,0,0,1,189.8,216h-.09v11.72h-3.87Zm3.87,5.74a8.8,8.8,0,0,0,.18,1.61,6.06,6.06,0,0,0,5.88,4.58c4.14,0,6.55-3.38,6.55-8.33,0-4.32-2.27-8-6.41-8a6.25,6.25,0,0,0-5.93,4.85,6.53,6.53,0,0,0-.27,1.6Z"/></g></g></svg>